<svg width="19" height="20" viewBox="0 0 19 20" fill="none" xmlns="http://www.w3.org/2000/svg">
<path d="M17.8445 16.1251L14.063 12.3408C13.3343 11.6116 12.1524 11.6114 11.4235 12.3403C10.6948 13.0691 10.6948 14.2506 11.4235 14.9793L15.2087 18.7646C15.6276 19.1835 16.3172 19.1835 16.7361 18.7646L17.8445 17.6561C18.2634 17.2335 18.2634 16.5403 17.8445 16.1251Z" fill="#B7B7B7"/>
<path d="M9.52779 11.8304C9.90963 12.2122 10.5287 12.2122 10.9106 11.8304C11.2924 11.4486 11.2924 10.8295 10.9106 10.4477L10.7437 10.2808C10.3284 9.86554 10.2844 9.21726 10.5247 8.68146C11.433 6.65617 11.0584 4.19332 9.39619 2.53107C7.24976 0.384642 3.76135 0.384642 1.61121 2.53107C-0.538924 4.6775 -0.535217 8.16591 1.61121 10.316C3.27346 11.9783 5.73631 12.3528 7.7616 11.4446C8.2974 11.2043 8.94569 11.2483 9.36091 11.6635L9.52779 11.8304ZM2.67887 9.23357C1.12187 7.67657 1.12187 5.15201 2.67887 3.59873C4.23586 2.04173 6.76042 2.04173 8.31371 3.59873C9.8707 5.15572 9.8707 7.68028 8.31371 9.23357C6.76042 10.7906 4.23586 10.7906 2.67887 9.23357Z" fill="#B7B7B7"/>
</svg>
